# xmcd
#
# Track frame offsets: 
#        150
#        20977
#        39342
#        59437
#        84537
#        104570
#        121307
#        143237
#        163840
#        183522
#
# Disc length: 2772 seconds
#
# Revision: 4
# Processed by: cddbd v1.5.2PL0 Copyright (c) Steve Scherf et al.
# Submitted via: ExactAudioCopy v1.0b1
#
DISCID=8e0ad20a
DTITLE=林曉培 - SHINO
DYEAR=1998
DGENRE=Pop
TTITLE0=盲目的Cinderella
TTITLE1=那又如何
TTITLE2=搶先一步
TTITLE3=悲傷Johnny
TTITLE4=失憶
TTITLE5=煩
TTITLE6=她的眼淚
TTITLE7=醒來就忘記
TTITLE8=偏頭痛
TTITLE9=愛上你太沉重
EXTD=
EXTT0=
EXTT1=
EXTT2=
EXTT3=
EXTT4=
EXTT5=
EXTT6=
EXTT7=
EXTT8=
EXTT9=
PLAYORDER=
